<?xml version="1.0" standalone="no"?>
<!DOCTYPE svg PUBLIC "-//W3C//DTD SVG 20010904//EN"
 "http://www.w3.org/TR/2001/REC-SVG-20010904/DTD/svg10.dtd">
<svg version="1.0" xmlns="http://www.w3.org/2000/svg"
 width="138.000000pt" height="138.000000pt" viewBox="0 0 138.000000 138.000000"
 preserveAspectRatio="xMidYMid meet">
<metadata>
Created by potrace 1.11, written by Peter Selinger 2001-2013
</metadata>
<g transform="translate(0.000000,138.000000) scale(0.100000,-0.100000)"
fill="#000000" stroke="none">
<path d="M160 684 l0 -645 403 3 c396 3 403 3 462 27 163 64 246 251 184 416
-26 69 -96 146 -158 174 l-44 19 50 26 c102 51 173 168 173 286 0 132 -85 256
-205 299 -33 12 -68 26 -77 31 -11 6 -166 10 -403 10 l-385 0 0 -646z m890
520 c19 -12 45 -32 57 -45 85 -93 75 -269 -21 -357 -63 -58 -119 -72 -288 -72
l-138 0 0 218 0 219 137 2 c144 2 164 8 178 52 7 20 21 17 75 -17z m-450 -239
l0 -200 -140 3 -140 3 0 194 c0 119 4 195 10 197 5 2 68 3 140 3 l130 0 0
-200z m420 -361 c51 -23 102 -77 126 -132 24 -54 22 -156 -5 -214 -23 -51 -86
-111 -132 -127 -25 -9 -29 -7 -29 8 0 10 -10 27 -23 39 -20 19 -34 21 -160 23
l-137 1 0 215 0 215 158 -4 c131 -3 164 -7 202 -24z m-420 -199 l0 -205 -140
0 -140 0 0 200 0 199 138 4 c75 1 138 4 140 5 1 1 2 -90 2 -203z"/>
</g>
</svg>
